<svg xmlns="http://www.w3.org/2000/svg" xmlns:xlink="http://www.w3.org/1999/xlink" width="0" height="0" style="display:none;"><symbol viewBox="0 0 24 24" id="zoom-in-line"><path d="M18.031 16.6168L22.3137 20.8995L20.8995 22.3137L16.6168 18.031C15.0769 19.263 13.124 20 11 20C6.032 20 2 15.968 2 11C2 6.032 6.032 2 11 2C15.968 2 20 6.032 20 11C20 13.124 19.263 15.0769 18.031 16.6168ZM16.0247 15.8748C17.2475 14.6146 18 12.8956 18 11C18 7.1325 14.8675 4 11 4C7.1325 4 4 7.1325 4 11C4 14.8675 7.1325 18 11 18C12.8956 18 14.6146 17.2475 15.8748 16.0247L16.0247 15.8748ZM10 10V7H12V10H15V12H12V15H10V12H7V10H10Z"></path></symbol><symbol viewBox="0 0 24 24" id="zoom-out-line"><path d="M18.031 16.6168L22.3137 20.8995L20.8995 22.3137L16.6168 18.031C15.0769 19.263 13.124 20 11 20C6.032 20 2 15.968 2 11C2 6.032 6.032 2 11 2C15.968 2 20 6.032 20 11C20 13.124 19.263 15.0769 18.031 16.6168ZM16.0247 15.8748C17.2475 14.6146 18 12.8956 18 11C18 7.1325 14.8675 4 11 4C7.1325 4 4 7.1325 4 11C4 14.8675 7.1325 18 11 18C12.8956 18 14.6146 17.2475 15.8748 16.0247L16.0247 15.8748ZM7 10H15V12H7V10Z"></path></symbol><symbol viewBox="0 0 24 24" id="refresh-line"><path d="M5.46257 4.43262C7.21556 2.91688 9.5007 2 12 2C17.5228 2 22 6.47715 22 12C22 14.1361 21.3302 16.1158 20.1892 17.7406L17 12H20C20 7.58172 16.4183 4 12 4C9.84982 4 7.89777 4.84827 6.46023 6.22842L5.46257 4.43262ZM18.5374 19.5674C16.7844 21.0831 14.4993 22 12 22C6.47715 22 2 17.5228 2 12C2 9.86386 2.66979 7.88416 3.8108 6.25944L7 12H4C4 16.4183 7.58172 20 12 20C14.1502 20 16.1022 19.1517 17.5398 17.7716L18.5374 19.5674Z"></path></symbol></svg>